<svg enable-background="new 0 0 1000 1000" height="1000" viewBox="0 0 1000 1000" width="1000" xmlns="http://www.w3.org/2000/svg"><path clip-rule="evenodd" d="m0 0h1000v1000h-1000z" fill="#4f464a" fill-rule="evenodd"/><path d="m352.096 862.572 9 28.498s169.905 42.93 271.905 0l6-28.498h8l39.999-473.572h15v-113h36v-29h-489v28h36v113h15l43 476z" fill="#e6e8d4" opacity=".8" stroke="#e6e8d4" stroke-miterlimit="10" stroke-width="3"/><path d="m345.926 861.922 9.257 31.406s185.056 41.953 279.69 0" fill="#85aa7b"/><path d="m635.094 893.237 6.07-28.832s-100.158 31.942-288.334 0" fill="#85aa7b"/><path d="m352.096 866.572s180.904 36.572 286.904 0" fill="#a5db95"/><path d="m640.676 867.137h10l38-473.573s-113.611 56.901-387-1" fill="#a5db95"/><path d="m351.096 866.572-8.763-.852-43.089-471.015 339.586 468.295-19.958 5.94z" fill="#a5db95"/><path d="m301.676 392.564c160.489 48.103 251.778 50.77 388 1" fill="#c3e0b8"/><path d="m300 394c179-47 388.676.564 388.676.564" fill="#c3e0b8"/><path d="m384.474 503.334-11.405-41.334-43.736-46.666-24.666-20.629-4.667-1.705 22 78.334 30.627 14.666z" fill="#a5db95"/><path d="m627.143 869.806 16.191-3.234-4.334-9.238-11.857 9.238-23.127 7.533z" fill="#a5db95"/><path d="m375.266 484.667v36l27.401 15.333 3.132-32.666-26.875-20.116" fill="#a5db95"/><path clip-rule="evenodd" d="m681.591 500s-116.51 44-374.834 0l13.701 148.98s160.379 55.98 348.324 0" fill="#847079" fill-rule="evenodd"/><circle cx="377" cy="840" fill="#584048" r="23"/><circle cx="432.5" cy="850" fill="#584048" r="23"/><circle cx="492" cy="850" fill="#584048" r="23"/><circle cx="550" cy="850" fill="#584048" r="23"/><circle cx="610" cy="840" fill="#584048" r="23"/><circle cx="573" cy="794" fill="#584048" r="23"/><circle cx="516.5" cy="800" fill="#584048" r="23"/><circle cx="463.5" cy="800" fill="#584048" r="23"/><circle cx="409.5" cy="794" fill="#584048" r="23"/><g clip-rule="evenodd" fill-rule="evenodd"><path d="m368.7 549.847c.411-.023.333.849.584.291.788.966.552 2.954.584 4.675-.589-1.457-.777-3.313-1.168-4.966z" fill="#ff8080"/><path d="m501.027 552.184c2.578-.876 4.092 1.078 4.382 3.213.354 2.628 0 7.861 0 10.516v27.459c0 4.296.952 10.668-2.922 10.81-4.113.149-3.214-5.929-3.214-10.81 0-12.571-.129-22.312 0-34.762.02-1.8-.334-3.634.293-4.965.063-.133.535-.185.584-.293.121-.267.447-1.022.877-1.168z" fill="#ff8080"/><path d="m516.217 591.619c-.418 4.271 1.521 12.399-2.921 12.562-4.143.15-3.214-6.238-3.214-11.102 0-10.352 0-18.814 0-28.627 0-4.75-.819-10.487 1.753-12.269.748.229 1.761-.298 2.629 0 .231.079 1.348 1.222 1.462 1.461 1.019 2.151.291 8.585.291 11.392v14.605c.549.432.733-.468 1.168-.876 1.158-1.084 2.507-2.669 3.799-4.089 1.863-2.05 3.56-4.799 6.426-3.798.467.163.74 1.113 1.46 1.46.392 3.694-2.405 5.47-4.089 7.303-1.415 1.543-2.63 3.063-4.089 4.675-.411.453-1.264.62-1.169 1.46-.045-.036-.262.046-.293 0 .762 1.116 2.104 2.395 3.213 3.506 3.501 3.501 7.194 7.008 10.518 10.224 1.358 3.105-1.277 5.741-4.383 4.382-4.064-4.309-8.252-8.496-12.561-12.562z" fill="#ff8080"/><path d="m479.702 588.698c-.535 3.028.862 8.596 1.753 11.392.66 2.07 1.703 3.784 2.922 6.136.515.994 1.118 1.176 1.168 2.337.052 1.206-.819 2.929-2.045 3.213-1.657.384-2.529-.522-3.505-1.462-.87-.836-1.24-2.028-1.753-2.92-.321-.557-.888-.872-1.169-1.461-.681-1.424-1.221-3.542-1.753-5.259-.411-1.324-.924-2.446-1.167-3.797-.67-3.702-.782-8.548-.877-13.437-2.341 3.634-3.869 8.788-8.764 8.471-3.13-.203-4.599-2.913-5.842-5.55-1.299-2.753-2.256-5.7-2.922-8.472-.824 2.818-1.176 5.729-1.752 8.764-3.248 17.129-8.168 34.158-16.942 46.154-1.493 2.04-3.028 4.219-4.674 5.842-.539.531-1.367.897-2.045 1.462-.657.544-1.093 1.258-1.753 1.751-4.566 3.419-13.125 6.985-20.448 4.09-.359-.142-.946-.578-1.46-.876-.225-.131-.611-.121-.876-.292-.253-.162-.344-.708-.585-.876-.282-.198-.633-.079-.876-.293-1.851-1.625-4.517-5.802-4.966-9.056-.757-5.481.715-9.728 3.213-12.853 1.344-1.683 2.958-3.482 5.843-2.922 1.239 1.283 1.972 1.975 1.168 4.09-.553 1.456-2.834 2.69-3.506 4.382-2.045 5.155.521 11.533 4.382 13.146 4.138 1.727 9.982-.602 13.146-2.629 2.516-1.613 5.294-4.141 7.303-6.719 8.589-11.024 13.366-27.117 16.65-43.525 1.729-8.641 2.728-17.331 4.089-27.751.213-1.621-.072-2.418.584-3.505.583-.964 1.416-1.426 2.338-1.461 3.163-.118 3.307 3.556 3.798 6.427 1.52 8.892 3.208 17.221 6.426 23.953.637-.107 1.155-.934 1.461-1.461.609-1.053 1.205-2.455 1.752-3.797 2.438-5.967 4.011-11.606 5.843-18.987.646-2.598 1.25-6.904 4.09-7.011 4.766-.178 2.676 6.512 2.337 10.224-.464 5.085-.524 8.79-.585 13.437-.487 3.021-.487 8.081-.001 11.101z" fill="#ff8080"/><path d="m405.799 567.374c1.478 2.392.034 7.202-.585 10.516-2.558 13.693-5 26.173-7.595 40.604-.59 3.283-1.555 8.401-2.337 12.27-.325 1.61-.494 3.263-.876 3.797-.833 1.165-3.812 1.874-6.134 2.629-4.142 1.347-8.583 2.538-13.729 1.461-2.893-.605-8.784-2.411-9.932-4.09-.405-.592-.542-2.222-.876-3.797-3.344-15.752-6.418-33.058-9.64-49.076-.373-1.854-.754-3.334-1.168-5.549-.328-1.748-.463-5.052 0-7.013.505 1.306 2.212 3.524 3.505 4.383 1.014.673 1.853 1.113 3.213 1.753 9.833 4.624 26.848 5.134 37.683.877 4.314-1.696 8.725-4.404 8.179-8.764.097-.001.194-.001.292-.001zm-36.515 44.985c-1.948-.393-4.039 1.057-4.381 1.753-.489.994-.578 2.913 0 4.09.438.89 2.396 1.813 3.505 1.752-1.463 1.404-.999 5.008.584 5.842-.49.68-1.103 1.235-1.461 2.045-.969 4.659 4.128 6.135 6.719 3.799.244 3.244 5.64 3.82 7.011 1.168.881 1.388 4.068 1.444 4.966.584.69-.662 1.126-1.48 1.753-2.045 3.056 1.767 6.037-.729 5.843-3.506-.151-2.148-2.04-3.135-4.09-3.797.938-1.228-.692-2.926-.292-3.506 6.233-.119 4.405-8.678-.876-7.594-.271.055-1.145.613-1.461.875-.408.34-.67 1.076-1.167 1.46-.723-3.33-6.228-3.239-7.303-.291-.571-3.069-5.553-3.305-7.011-.876-.937-.458-1.229-1.529-2.339-1.753z" fill="#bd9dbd"/><path d="m491.971 568.25c.074.821 1.229.808 1.461 1.461.738 2.086-.825 4.638-3.506 4.089-2.824-.578-3.275-6.337 2.045-5.55z" fill="#ff8080"/><path d="m479.702 577.597v11.102c-.486-3.021-.486-8.081 0-11.102z" fill="#ff8080"/><path d="m489.343 579.642c2.519-.854 4.09 1.063 4.382 3.213.368 2.724 0 7.957 0 10.517 0 6.058.629 10.676-2.922 10.81-4.078.151-3.213-5.334-3.213-10.224 0-2.224 0-4.605 0-6.72 0-3.316-.314-5.713 1.168-7.01.06-.054.585-.586.585-.586z" fill="#ff8080"/><path d="m627.221 619.078c.757 0 1.91.321 2.629.584 1.106.404 1.759 1.148 2.337 1.753 1.146 1.196 1.173 6.522.292 8.18-.066.125-.537.186-.584.291-.058.127.091.486 0 .584-.229.247-.595.081-.876.293-.157.118-.97 1.012-1.462 1.168-1.521.485-4.528.228-5.841-.584-1.464-.904-3.09-4.387-2.338-7.887.553-2.57 3.017-4.381 5.843-4.382zm-1.168 10.808c6.608 1.992 5.381-11.803-.586-7.887-2.076 1.362-2.03 7.098.586 7.887z" fill="#554747"/><path d="m470.063 619.954c.19 1.069-.633 1.121-.585 2.045-1.529-.207-3.837-1.298-4.674.293.653 2.901 3.831 2.174 4.966 4.09.72 1.212.706 2.896.293 3.797-.371.806-2.54 1.959-4.091 2.044-1.308.073-2.726-.521-3.797-.876 0-.779 0-1.559 0-2.338 1.392.549 4.52 1.699 5.55 0-.549-2.943-3.807-2.136-4.966-4.089-.241-.409-.561-1.432-.584-1.752-.244-3.272 3.632-4.885 7.888-3.214z" fill="#554747"/><path d="m503.948 619.37v12.561" fill="#eedca0"/><path d="m503.948 619.37h3.506c1.344 3.33 3.442 5.905 4.965 9.056.659-.218.114-1.639.294-2.337 0-2.239 0-4.479 0-6.719h2.336v12.561c-1.169 0-2.336 0-3.505 0-1.526-3.147-3.485-5.863-4.967-9.056-.666.405-.108 2.034-.292 2.921v6.135c-.778 0-1.558 0-2.337 0 0-4.187 0-8.374 0-12.561z" fill="#554747"/><path d="m512.713 619.37v6.719" fill="#bd9dbd"/><path d="m541.923 631.931c0-4.187 0-8.374 0-12.561 5.878-.316 10.162.363 10.517 5.55.113 1.677-.446 3.19-1.169 4.382-.518.854-.56.878-1.169 1.461-1.309 1.254-4.934 1.212-8.179 1.168zm2.921-10.224c-.465.434-.345 2.804-.292 4.382.063 1.859-.438 4.576 1.169 3.506 2.789.16 3.988-1.271 3.798-4.09.227-1.785-.564-2.553-1.168-3.506-.878-.389-2.237-.297-3.507-.292z" fill="#554747"/><path d="m564.708 619.37v12.561" fill="#bd9dbd"/><path d="m564.708 619.37h2.629v12.561c-.876 0-1.753 0-2.629 0 0-4.187 0-8.374 0-12.561z" fill="#554747"/><path d="m580.189 619.37v12.561" fill="#bd9dbd"/><path d="m580.189 619.37h7.012v2.337c-1.363 0-2.727 0-4.09 0-.663.311-.11 1.837-.292 2.629h4.09v2.046c-1.266 0-2.532 0-3.798 0-.67.594-.106 2.424-.292 3.504h4.382v2.045c-2.338 0-4.675 0-7.012 0" fill="#554747"/><path d="m608.817 631.64c-2.119.263-5.575 1.025-7.595-.293-1.575-1.028-2.276-3.551-2.337-5.258-.18-5.076 4.288-8.472 10.224-6.135.048.924-.776.977-.584 2.045-1.742-.28-2.465-.818-3.798-.584-4.268.748-4.505 9.868 1.752 8.471.451-.425.259-1.495.293-2.337-.325-.745-2.259.118-2.629-.584 0-.682 0-1.362 0-2.045h4.966c-.166 2.172.35 5.024-.292 6.72z" fill="#554747"/><path d="m374.25 624.628c1.218.438 1.322 1.988 2.921 2.045-.525.741-1.434 1.098-2.336 1.46-.322-.847-.362-1.975-1.46-2.044-.139-.917.785-.773.875-1.461z" fill="#bd9dbd"/><path d="m367.239 540.791c-.178 1.151.654 1.294 1.46 1.461-1.359 1.134-.036 2.168-.584 4.381-.325-1.144-1.231-3.236-.584-4.381-.322-.109-1.111-1.168-.292-1.461z" fill="#ff8080"/><path d="m370.161 556.565c1.275 2.246 1.42 5.829 2.045 9.347.667.789 1.475.566 2.044.878 1.824.993 3.628.346 4.674-.878-.772-2.635-.857-5.959-1.46-8.763.938 1.099 2.531.478 4.382.584 2.924.167 5.948.335 8.763.876 2.278.438 4.938 1.361 7.303 2.338 2.222.917 4.92 2.119 6.426 4.089.18.235.1.604.292.876.366.519.85.882 1.169 1.462-.098 0-.195 0-.292 0 .545 4.359-3.865 7.067-8.179 8.764-10.834 4.257-27.85 3.747-37.683-.877-1.361-.64-2.199-1.08-3.213-1.753-1.293-.858-3-3.077-3.505-4.383.47-4.336 3.494-6.018 6.719-7.594 3.093-1.512 6.93-2.669 10.808-3.213.005-.688-.505-.86-.293-1.753z" fill="#eedca0"/><path d="m516.217 591.619c0-.097 0-.195 0-.293 4.309 4.065 8.496 8.253 12.561 12.562-4.357-3.919-8.204-8.35-12.561-12.269z" fill="#ff8080"/><path d="m519.723 585.776c4.309 4.748 9.129 8.982 13.438 13.729-3.323-3.216-7.017-6.723-10.518-10.224-1.109-1.111-2.451-2.39-3.213-3.506.031.047.248-.035.293.001z" fill="#ff8080"/><path d="m615.244 586.944c-1.1 1.469-2.608.396-4.09.877-1.552.503-2.742 1.891-3.797 3.213-1.177 1.477-4.006 5.629-1.753 7.888 1.771.458 2.455-.898 3.213-1.752.534-.604.888-1.417 1.461-2.337.112-.182.495-.422.584-.585 1.036-1.895 1.486-5.662 3.798-5.842 2.365-.184 2.357 1.775 3.213 3.505 1.132 2.29 3.252 6.7 5.843 7.011s4.559-2.351 5.841-3.797c1.785-2.014 2.742-3.35 3.798-5.843-.394-2.315-.468-4.173 1.169-4.674 2.207-.676 3.338 1.148 3.506 3.505.142 2.024-.816 4.287-1.461 5.551-1.345 2.636-5.042 6.891-7.595 8.472-1.302.805-3.209 1.551-5.258 1.46-.355-.016-1.802-.112-2.922-.584-1.222-.515-2.238-1.832-3.213-2.922-.943-1.051-1.743-2.025-2.63-3.506-1.767 2.713-3.459 5.499-6.426 7.012-3.193.189-5.627-.336-7.011-1.753-.298-.305-1.316-1.963-1.461-2.628-.686-3.162.581-6.277 1.753-8.472.948-1.775 2.097-2.975 3.506-4.382.724-.725 1.096-1.124 1.752-1.753 1.121-1.074 4.607-2.039 7.011-1.168 1.533.07 1.728 2.214 1.169 3.504z" fill="#8bcb7c"/><path d="m377.171 619.662c-.612-.537 1.515-.806 1.169-2.045 1.254 1.277 2.069 2.994 4.966 2.629-1.458 1.465-1.121 5.594 1.168 5.843-1.332.518-2.964.736-3.505 2.044-.842-.132-.914-1.033-2.045-.876.499-.767 1.63-.901 2.337-1.461.122-.983.873-1.668.876-2.628.009-2.377-2.435-4.544-4.966-3.506z" fill="#bd9dbd"/><path d="m488.174 619.37c1.544 4.104 3.071 8.224 4.383 12.561-.877 0-1.754 0-2.631 0-.437-.828-.608-1.922-.876-2.922-1.46 0-2.921 0-4.382 0-.938.426-.766 1.962-1.168 2.922-.974 0-1.947 0-2.921 0 1.523-4.125 3.025-8.27 4.381-12.561zm-1.752 2.629c-.482 1.563-.829 3.261-1.462 4.674h3.214c-.485-1.658-.542-3.742-1.752-4.674z" fill="#554747"/><path d="m368.116 546.633c.548-2.213-.775-3.247.584-4.381-.807-.167-1.638-.31-1.46-1.461.522-.92 2.584-1.518 4.966-1.169.952.14 1.728 1.244 2.629 1.462.072 1.59-.157 3.197.292 4.673.109.359.476.688.584 1.168.759 3.374.488 7.08 1.753 10.225.604 2.804.688 6.128 1.46 8.763-1.045 1.224-2.85 1.871-4.674.878-.569-.312-1.377-.089-2.044-.878-.625-3.518-.77-7.101-2.045-9.347.038-.721.043-1.407-.292-1.753-.032-1.721.204-3.709-.584-4.675-.251.558-.173-.314-.584-.291.008-1.277-.255-2.279-.585-3.214z" fill="#ff8080"/><path d="m560.326 562.992c2.484-1.313 4.351-3.498 7.011-4.966 3.208-1.771 7.741-3.212 13.145-2.338 1.77.286 4.08 1.046 6.135 1.753 1.333.459 2.435.784 3.799 1.461 1.479.734 3.623 2.01 3.796 3.797.124 1.278-.371 1.884-1.169 2.922-.521.678-1.284 1.457-2.044 2.045-.259.199-.647.079-.876.291-.128.119-.16.484-.293.585-.262.2-.646.077-.876.292-.116.109-.17.5-.292.584-.405.28-1.055.334-1.46.585-.84.519-1.191.853-2.338 1.46-.18.097-.674.14-.876.293-.108.081-.19.532-.292.583-.901.459-1.968.789-2.922 1.169-2.03.812-4.354 1.589-6.134 1.753-5.053.465-8.524-1.166-11.976-2.337-1.126.285-1.751 1.627-2.338 2.629-1.475 2.519-3.422 6.832-3.798 10.224-.388 3.51.203 6.439 1.753 8.764 1.694 2.542 4.053 4.133 7.888 3.506 3.093-.506 5.288-3.145 7.595-2.63 1.235.276 2.313 2.377 2.337 2.922.104 2.384-3.993 4.758-8.179 5.843-7.029 1.818-12.354-2.277-14.899-6.135-1.278-1.938-2.719-5.307-2.921-8.764-.323-5.567 1.769-10.765 4.09-15.482-5.231 1.835-12.548 1.486-17.234-1.168-.731-.415-1.304-1.211-2.045-1.753-.271-.198-.643-.074-.877-.292-1.384-1.289-3.8-3.237-5.258-4.966-.199-.238-.087-.657-.291-.877-.652-.7-2.255-2.471-2.045-4.09.277-2.134 2.693-2.758 5.55-3.505 2.696-.704 5.362-1.319 7.303-1.461 10.143-.738 16.625 2.708 21.031 7.303zm-16.358-1.169c-2.899-.127-5.848.543-8.763.876-.022 1.042 1.285 1.406 2.044 2.045.766.646 1.444 1.501 2.337 2.046.43.26.947.332 1.461.584.465.228 1.026.733 1.46.876 4.405 1.443 8.775-.126 12.27-1.752-2.51-2.212-6.234-4.474-10.809-4.675zm34.761 0c-5.612-.517-10.452 2.56-13.146 5.551 3.996 1.718 8.826 1.863 12.27.583 2.766-1.028 5.716-2.847 7.303-4.381-2.143-.646-4.105-1.538-6.427-1.753z" fill="#8bcb7c"/><path d="m584.571 595.125c.236 1.202.527 2.397.876 2.921.465.694 1.995 1.954 3.506 2.044 3.337.2 8.023-3.228 9.056-.292 1.096 3.118-6.053 4.408-8.472 4.383-3.242-.035-6.295-1.813-7.303-2.922-.723-.795-.82-1.66-1.168-2.337-.349-.68-.895-1.199-1.168-2.338-1.143-.652-2.865-.897-2.922-2.336-.052-1.298 1.02-1.665 2.337-2.337-.666-4.424 2.666-7.144 4.966-9.348.896-.857 4.733-2.42 7.012-2.045 3.826.63 4.492 5.232 2.628 8.472-.881 1.531-1.335 1.778-2.921 2.921-.484.349-.979.706-1.461 1.168-.786.755-3.669 1.338-4.966 2.046zm4.966-10.517c-2.639 1.256-5.094 2.694-5.55 6.135 3.145-.944 5.888-2.291 6.428-5.843-.374-.015-.406-.374-.878-.292z" fill="#8bcb7c"/><path d="m371.621 614.112c1.458-2.429 6.44-2.193 7.011.876 1.076-2.948 6.58-3.039 7.303.291.497-.384.76-1.12 1.167-1.46.317-.262 1.19-.82 1.461-.875 5.281-1.084 7.109 7.475.876 7.594-.4.58 1.23 2.278.292 3.506 2.051.662 3.939 1.648 4.09 3.797.194 2.776-2.787 5.272-5.843 3.506-.626.564-1.063 1.383-1.753 2.045-.897.86-4.085.804-4.966-.584-1.371 2.652-6.767 2.076-7.011-1.168-2.591 2.336-7.688.86-6.719-3.799.358-.81.971-1.365 1.461-2.045-1.583-.834-2.048-4.438-.584-5.842-1.109.062-3.068-.862-3.505-1.752-.578-1.177-.489-3.096 0-4.09.342-.696 2.434-2.146 4.381-1.753 1.112.224 1.404 1.295 2.339 1.753zm10.516 9.056c-.004.96-.754 1.645-.876 2.628-.707.56-1.838.694-2.337 1.461 1.131-.157 1.203.744 2.045.876.542-1.308 2.173-1.526 3.505-2.044-2.29-.249-2.626-4.378-1.168-5.843-2.896.365-3.711-1.352-4.966-2.629.346 1.239-1.781 1.508-1.169 2.045 2.531-1.038 4.975 1.129 4.966 3.506zm-8.763 2.921c1.099.069 1.139 1.197 1.46 2.044.903-.362 1.811-.719 2.336-1.46-1.599-.057-1.703-1.607-2.921-2.045-.089.688-1.013.544-.875 1.461z" fill="#554747"/><path d="m368.214 546.929-1.326-5.757 7.946-.088.972 6.305 2.194 13.174-6.187.937z" fill="#ff8080"/></g><path d="m561.881 247.197 55.254-155.138c-23.631-18.639-59.8-19.568-59.8-19.568l-66.365 172.961" fill="#e3c186"/><path d="m508.557 394.808 57.648-161.861c-24.655-19.446-62.391-20.417-62.391-20.417l-69.241 180.457" fill="#e3c186" opacity=".5"/></svg>