<svg height="113" viewBox="0 0 92 113" width="92" xmlns="http://www.w3.org/2000/svg"><g fill="none" fill-rule="evenodd" transform="translate(.775 .48)"><path d="m70.725 1.725v31.05l-20.7-9.2c-13.708 12.259-29.9 9.2-29.9 9.2v-12.65s3.588-18.4 25.3-18.4z" fill="#846954"/><path d="m48.875 83.375 5.75 13.8-6.9 12.65h-4.6l-6.9-12.65 5.75-13.8.115-.483c1.035.299 2.162.483 3.335.483s2.3-.184 3.335-.483z" fill="#f4661e"/><path d="m67.275 84.525s-.138 18.193-17.25 25.3h-2.3l6.9-12.65-5.75-13.8-.115-.483c4.945-1.357 8.165-5.267 8.165-5.267 2.507 2.806 10.35 6.9 10.35 6.9z" fill="#e7eced"/><path d="m36.225 97.175 6.9 12.65h-2.3c-17.112-7.107-17.25-25.3-17.25-25.3s7.843-4.094 10.35-6.9c0 0 3.22 3.91 8.165 5.267l-.115.483z" fill="#e7eced"/><path d="m67.275 84.525 10.35 13.8-9.2 4.6 5.75 6.9h-24.15c17.112-7.107 17.25-25.3 17.25-25.3z" fill="#545253"/><path d="m40.825 109.825h-24.15l5.75-6.9-9.2-4.6 10.35-13.8s.138 18.193 17.25 25.3z" fill="#545253"/><path d="m89.125 104.075v5.75h-14.95l-5.75-6.9 9.2-4.6-10.35-13.8c21.781 6.9 21.85 19.55 21.85 19.55z" fill="#373738"/><path d="m70.725 38.525c3.818 0 6.9 1.426 6.9 4.6 0 2.944-3.634 6.348-7.199 6.831.207-1.472.299-2.99.299-4.531z" fill="#ffd7a3"/><path d="m70.426 49.956c-1.242 8.993-6.118 16.537-13.501 20.355-3.358 1.748-7.222 2.714-11.5 2.714s-8.142-.966-11.5-2.714c-7.383-3.818-12.259-11.362-13.501-20.355-.207-1.472-.299-2.99-.299-4.531v-6.9-5.75s16.192 3.059 29.9-9.2l20.7 9.2v5.75 6.9c0 1.541-.092 3.059-.299 4.531z" fill="#ffe1b2"/><path d="m56.925 70.311v7.314s-3.22 3.91-8.165 5.267c-1.035.299-2.162.483-3.335.483s-2.3-.184-3.335-.483c-4.945-1.357-8.165-5.267-8.165-5.267v-7.314c3.358 1.748 7.222 2.714 11.5 2.714s8.142-.966 11.5-2.714z" fill="#ffd7a3"/><path d="m23.575 84.525-10.35 13.8 9.2 4.6-5.75 6.9h-14.95v-5.75s.207-12.581 21.85-19.55z" fill="#373738"/><path d="m20.125 45.425c0 1.541.092 3.059.299 4.531-3.565-.483-7.199-3.887-7.199-6.831 0-3.174 3.082-4.6 6.9-4.6z" fill="#ffd7a3"/><g fill="#231f20"><path d="m68.32771 83.05369-2.75586-1.43704c-2.34968-1.34987-5.36751-3.22782-6.92208-4.69499v-5.58877c6.98878-3.99579 11.76772-11.16489 13.29492-19.94008 3.95945-1.1339 7.40531-4.84978 7.40531-8.26781 0-3.45989-2.60084-5.75598-6.9-6.23162v-36.89338h-27.025c-11.90894 0-18.61781 5.36199-22.14877 9.85987-3.82375 4.87094-4.80447 9.73038-4.84426 9.93485l-.03197.16353v16.9349c-4.29916.47564-6.9 2.77173-6.9 6.23162 0 3.41803 3.44609 7.13391 7.40508 8.26758 1.52881 8.77864 6.30844 15.94751 13.29492 19.94031v5.58877c-1.55434 1.46717-4.57217 3.34535-6.92208 4.69499l-2.75839 1.44049c-22.03814 7.30043-22.5101 20.42975-22.5193 20.98934l-.00023 7.50375h90.85v-7.48443c-.00322-.56327-.33465-13.77585-22.52229-21.01188zm-22.90271-8.30369c3.46817 0 6.74452-.59685 9.775-1.77123v3.98222c-.9315.9729-3.45621 3.3235-6.89632 4.26742l-.02254.00621c-1.9067.55108-3.80512.55108-5.71228 0l-.02231-.00621c-3.41435-.93702-5.95976-3.29866-6.89655-4.27087v-3.979c3.03186 1.17484 6.30752 1.77146 9.775 1.77146zm11.55658 5.29759c2.55829 2.1436 6.59732 4.43877 8.50517 5.47722-.32729 3.61744-2.33611 15.99581-14.53485 21.98662l5.58348-10.23638-5.55105-13.32252c2.68824-1.09066 4.76376-2.74712 5.99725-3.90494zm-17.11591 3.90471-5.55105 13.32252 5.58072 10.23132c-5.78105-2.82831-9.97257-7.36598-12.4637-13.52032-1.46924-3.63009-1.92648-6.88068-2.06816-8.46101 1.90785-1.03845 5.94688-3.33362 8.50517-5.47722 1.23326 1.15782 3.30878 2.81428 5.99702 3.90471zm-15.68439 11.19801c2.14337 5.36107 5.55013 9.74901 10.00431 12.94969h-13.8276l4.78653-5.74379-9.29936-4.64968 6.53154-8.70872c.3381 1.74409.89332 3.87297 1.80458 6.1525zm13.9541 1.92464 5.06851-12.1647c1.47821.24725 2.96378.24725 4.44199 0l5.06874 12.1647-6.01358 11.02505h-2.55208zm28.53334-1.92464c.91126-2.27953 1.46648-4.40841 1.80458-6.1525l6.53154 8.70872-9.29959 4.64968 4.78676 5.74379h-13.82737c4.45418-3.20068 7.86094-7.58885 10.00408-12.94969zm9.23128-52.02531c0 1.40898-1.52421 3.32741-3.51118 4.3861.03795-.68172.06118-7.15024.06118-7.15024 3.07441.43102 3.45 2.02078 3.45 2.76414zm-49.81961-31.24918c4.4482-5.59084 10.95674-8.42582 19.34461-8.42582h23.575v26.67057l-19.29355-8.57486-.83145.74359c-5.38821 4.81873-11.79371 7.76434-19.03825 8.75541-3.51095.48024-6.37928.35903-7.98675.21022v-10.94064c.18676-.78844 1.2167-4.65083 4.23039-8.43847zm-11.13039 31.24918c0-.74336.37559-2.33312 3.45-2.76414 0 0 .02323 6.46875.06118 7.15024-1.98697-1.05892-3.51118-2.97712-3.51118-4.3861zm7.18221 6.59088c-.18722-1.3317-.28221-2.77518-.28221-4.29088v-10.70397c1.82758.15157 4.75893.23414 8.31243-.2392 5.28816-.70449 12.99178-2.82578 20.16548-8.88467l18.67209 8.29886v11.52898c0 1.51478-.09499 2.95849-.28267 4.29502-1.18634 8.58981-5.77346 15.53627-12.58859 19.06102-3.21149 1.67141-6.8126 2.51896-10.70374 2.51896-3.89091 0-7.49225-.84755-10.70765-2.52126-6.81122-3.52222-11.39811-10.46891-12.58514-19.06286zm-18.68221 54.38005c.0115-.31326.52141-9.35042 15.18161-15.85482l-8.02677 10.70236 9.10064 4.55032-3.83847 4.60621h-12.41701zm83.95 4.00407h-12.41701l-3.83847-4.60621 9.10041-4.55032-8.05046-10.7341c4.66463 2.05068 9.53488 5.07311 12.59089 9.42218 2.46514 3.50842 2.60912 6.31534 2.61464 6.46208z"/><path d="m45.425 54.05h4.6v-3.45h-2.875v-7.475h-3.45v9.2c0 .95266.77234 1.725 1.725 1.725z"/></g></g></svg>