<svg height="113" viewBox="0 0 95 113" width="95" xmlns="http://www.w3.org/2000/svg"><g fill="none" fill-rule="evenodd" transform="translate(.88 .59)"><path d="m91.425 29.325v3.45h-20.7v-6.9h17.25c1.909 0 3.45 1.541 3.45 3.45z" fill="#1a68a6"/><path d="m70.725 25.875v6.9s-8.533-4.6-26.45-4.6c-13.961 0-24.15 4.6-24.15 4.6v-13.8s-.759-17.25 25.3-17.25 25.3 16.1 25.3 16.1z" fill="#1c75bc"/><path d="m79.649 90.321c-1.518.391-8.924 3.128-8.924 19.504h-50.6c0-16.054-7.107-18.998-8.832-19.458 3.036-2.116 7.038-4.14 12.282-5.842 0 0 7.843-4.094 10.35-6.9 0 0 .506 8.05 11.5 8.05s11.5-8.05 11.5-8.05c2.507 2.806 10.35 6.9 10.35 6.9 5.313 1.679 9.338 3.703 12.374 5.796z" fill="#e7eced"/><path d="m89.125 104.075v5.75h-18.4c0-16.376 7.406-19.113 8.924-19.504 9.43 6.532 9.476 13.754 9.476 13.754z" fill="#eac4a4"/><path d="m20.125 109.825h-18.4v-5.75s.115-7.199 9.568-13.708c1.725.46 8.832 3.404 8.832 19.458z" fill="#eac4a4"/><g fill="#d1b197"><path d="m56.925 75.325v2.3s-.506 8.05-11.5 8.05-11.5-8.05-11.5-8.05v-2.3-5.014c3.358 1.748 7.222 2.714 11.5 2.714s8.142-.966 11.5-2.714z"/><path d="m70.725 38.525c3.818 0 6.9 1.426 6.9 4.6 0 2.944-3.634 6.348-7.199 6.831.207-1.472.299-2.99.299-4.531z"/><path d="m20.125 45.425c0 1.541.092 3.059.299 4.531-3.565-.483-7.199-3.887-7.199-6.831 0-3.174 3.082-4.6 6.9-4.6z"/></g><path d="m70.725 38.525v6.9c0 1.541-.092 3.059-.299 4.531-1.242 8.993-6.118 16.537-13.501 20.355-3.358 1.748-7.222 2.714-11.5 2.714s-8.142-.966-11.5-2.714c-7.383-3.818-12.259-11.362-13.501-20.355-.207-1.472-.299-2.99-.299-4.531v-6.9-5.75s10.189-4.6 24.15-4.6c17.917 0 26.45 4.6 26.45 4.6z" fill="#eac4a4"/><path d="m54.625 13.225v6.9h-9.2-9.2v-6.9s.713-2.3 9.2-2.3 9.2 2.3 9.2 2.3z" fill="#fff"/><path d="m93.15 34.5v-5.175c0-2.85338-2.32162-5.175-5.175-5.175h-15.525v-6.29694c.01748-.61893.02392-5.86017-4.4436-10.54343-4.62714-4.85047-12.22473-7.30963-22.5814-7.30963-10.04456 0-17.50737 2.47618-22.18074 7.35977-4.88842 5.10807-4.8622 11.00872-4.84426 11.64329v17.89032c-4.29916.47564-6.9 2.77173-6.9 6.23162 0 3.41803 3.44609 7.13391 7.40508 8.26758 1.52881 8.77864 6.30844 15.94728 13.29492 19.94031v5.58992c-2.18178 2.05804-7.24684 4.92729-9.29752 6.00691-4.945 1.61713-9.18229 3.64297-12.58767 6.01634-10.06963 6.93358-10.30929 14.77106-10.31458 15.10111l-.00023 7.50283h90.85v-7.48604c-.0023-.33143-.16744-8.19858-10.22189-15.16321-3.45782-2.38395-7.7257-4.39369-12.68634-5.97425-2.05436-1.08192-7.11183-3.94749-9.29154-6.00392v-5.58992c6.98878-3.99579 11.76772-11.16512 13.29492-19.94031 3.95899-1.13367 7.40485-4.84932 7.40485-8.26735 0-3.46012-2.60084-5.75598-6.9-6.23162v-2.39338zm-20.7-6.9h15.525c.95128 0 1.725.77372 1.725 1.725v1.725h-17.25zm-46.66194-17.90803c4.00338-4.14184 10.61013-6.24197 19.63694-6.24197 9.32788 0 16.0655 2.07897 20.02541 6.17895 3.65792 3.78741 3.55718 7.94972 3.55143 8.11463l-.00161 12.41724c-3.81064-1.42048-11.937-3.71082-24.72523-3.71082-10.29802 0-18.52972 2.40741-22.425 3.79776v-11.27276l-.00138-.06739c-.0069-.20286-.12213-5.014 3.93944-9.21564zm-10.83806 33.43303c0-.74336.37559-2.33312 3.45-2.76414 0 0 .02323 6.46875.06118 7.15024-1.98697-1.05915-3.51118-2.97712-3.51118-4.3861zm40.25 34.41743c-.02944.25254-.24633 1.75145-1.38138 3.20252-1.66382 2.12681-4.48799 3.20505-8.39362 3.20505s-6.72957-1.07824-8.39362-3.20528c-1.13528-1.45107-1.35217-2.94998-1.38138-3.20252v-4.56412c3.03186 1.17507 6.30752 1.77169 9.775 1.77169 3.46817 0 6.74452-.59685 9.775-1.77123zm-51.75 26.55281c.00851-.24196.31556-6.10719 8.11302-11.8036 1.97018.87469 6.40711 4.13793 6.80708 15.80836h-14.9201zm83.95-.00207v4.00683h-14.91596c.2024-5.64443 1.40829-10.11839 3.52429-13.00029 1.24959-1.702 2.54518-2.49481 3.3649-2.85545 7.71926 5.67134 8.01619 11.50092 8.02677 11.84891zm-20.6448-17.92344c3.5282 1.11504 6.66793 2.45042 9.37135 3.98291-.92759.66309-1.93775 1.59551-2.89915 2.9049-2.57968 3.51325-3.98636 8.57072-4.19635 15.04223h-47.2121c-.20608-6.35697-1.5663-11.35027-4.05766-14.85156-.9844-1.38345-2.02653-2.35911-2.98057-3.04681 2.68019-1.53962 5.80451-2.89248 9.32673-4.03581 0 0 5.65156-2.95205 8.91296-5.44272.27876.61985.64883 1.28708 1.14908 1.95799 1.60517 2.15303 4.86105 4.71914 11.25551 4.71914s9.65034-2.56611 11.25574-4.71891c.50025-.67091.87032-1.33814 1.14908-1.95799 3.26117 2.49067 8.92538 5.44663 8.92538 5.44663zm9.1448-43.04473c0 1.40898-1.52421 3.32718-3.51118 4.3861.03795-.68172.06118-7.15024.06118-7.15024 3.07441.43102 3.45 2.02078 3.45 2.76414zm-6.9 2.3c0 1.51501-.09499 2.95849-.28267 4.29502-1.18634 8.58981-5.77346 15.53627-12.58859 19.06102-3.21149 1.67141-6.8126 2.51896-10.70374 2.51896-3.89091 0-7.49225-.84755-10.70765-2.52126-6.81145-3.52245-11.39834-10.46914-12.58537-19.06286-.18699-1.3317-.28198-2.77518-.28198-4.29088v-11.49195c2.85591-1.104 11.46688-4.03305 22.425-4.03305 13.97641 0 22.13083 2.88351 24.725 3.97992z" fill="#231f20"/><path d="m47.15 43.125h-3.45v9.2c0 .95289.77234 1.725 1.725 1.725h4.6v-3.45h-2.875z" fill="#231f20"/><path d="m56.35 12.96372-.07728-.24955c-.12167-.39284-.5934-1.39403-2.3391-2.20386-1.87335-.8694-4.73639-1.31031-8.50862-1.31031s-6.63504.44091-8.50885 1.31031c-1.74547.80983-2.2172 1.81102-2.33887 2.20386l-.07728.24955v8.88628h21.85zm-3.45 5.43628h-14.95v-4.53123c.56856-.37306 2.41569-1.21877 7.475-1.21877s6.90644.84571 7.475 1.21877z" fill="#231f20"/></g></svg>